0
SECTION
2
HEADER
9
$ACADVER
1
AC1009
9
$INSUNITS
70
4
9
$EXTMIN
10
0.0000
20
0.0000
30
0.0000
9
$EXTMAX
10
277.2470
20
291.7200
30
0.0000
0
ENDSEC
0
SECTION
2
TABLES
0
TABLE
2
LAYER
70
4
0
LAYER
2
CUT
70
0
62
6
6
CONTINUOUS
0
LAYER
2
CREASE
70
0
62
5
6
CONTINUOUS
0
LAYER
2
GLUE
70
0
62
3
6
CONTINUOUS
0
LAYER
2
DIMS
70
0
62
9
6
CONTINUOUS
0
ENDTAB
0
ENDSEC
0
SECTION
2
ENTITIES
0
POLYLINE
8
CUT
66
1
70
1
10
0.0000
20
0.0000
30
0.0000
0
VERTEX
8
CUT
10
34.2470
20
79.4200
30
0.0000
0
VERTEX
8
CUT
10
24.2470
20
83.4200
30
0.0000
0
VERTEX
8
CUT
10
24.2470
20
225.7700
30
0.0000
0
VERTEX
8
CUT
10
34.2470
20
229.7700
30
0.0000
0
VERTEX
8
CUT
10
114.5970
20
229.7700
30
0.0000
0
VERTEX
8
CUT
10
115.0970
20
229.7700
30
0.0000
0
VERTEX
8
CUT
10
122.9670
20
268.6200
30
0.0000
0
VERTEX
8
CUT
10
146.5770
20
268.6200
30
0.0000
0
VERTEX
8
CUT
10
154.4470
20
229.7700
30
0.0000
0
VERTEX
8
CUT
10
154.9470
20
229.7700
30
0.0000
0
VERTEX
8
CUT
10
154.9470
20
270.1200
30
0.0000
0
VERTEX
8
CUT
10
156.2970
20
273.1200
30
0.0000
0
VERTEX
8
CUT
10
156.2970
20
290.1200
30
0.0000
0
VERTEX
8
CUT
10
233.9470
20
290.1200
30
0.0000
0
VERTEX
8
CUT
10
233.9470
20
273.1200
30
0.0000
0
VERTEX
8
CUT
10
235.2970
20
270.1200
30
0.0000
0
VERTEX
8
CUT
10
235.2970
20
229.7700
30
0.0000
0
VERTEX
8
CUT
10
235.7970
20
229.7700
30
0.0000
0
VERTEX
8
CUT
10
243.6670
20
268.6200
30
0.0000
0
VERTEX
8
CUT
10
267.2770
20
268.6200
30
0.0000
0
VERTEX
8
CUT
10
275.1470
20
229.7700
30
0.0000
0
VERTEX
8
CUT
10
275.6470
20
229.7700
30
0.0000
0
VERTEX
8
CUT
10
275.6470
20
79.4200
30
0.0000
0
VERTEX
8
CUT
10
275.1470
20
79.4200
30
0.0000
0
VERTEX
8
CUT
10
267.2770
20
40.5700
30
0.0000
0
VERTEX
8
CUT
10
243.6670
20
40.5700
30
0.0000
0
VERTEX
8
CUT
10
235.7970
20
79.4200
30
0.0000
0
VERTEX
8
CUT
10
235.2970
20
79.4200
30
0.0000
0
VERTEX
8
CUT
10
235.2970
20
39.0700
30
0.0000
0
VERTEX
8
CUT
10
233.9470
20
36.0700
30
0.0000
0
VERTEX
8
CUT
10
233.9470
20
19.0700
30
0.0000
0
VERTEX
8
CUT
10
156.2970
20
19.0700
30
0.0000
0
VERTEX
8
CUT
10
156.2970
20
36.0700
30
0.0000
0
VERTEX
8
CUT
10
154.9470
20
39.0700
30
0.0000
0
VERTEX
8
CUT
10
154.9470
20
79.4200
30
0.0000
0
VERTEX
8
CUT
10
154.4470
20
79.4200
30
0.0000
0
VERTEX
8
CUT
10
146.5770
20
40.5700
30
0.0000
0
VERTEX
8
CUT
10
122.9670
20
40.5700
30
0.0000
0
VERTEX
8
CUT
10
115.0970
20
79.4200
30
0.0000
0
VERTEX
8
CUT
10
114.5970
20
79.4200
30
0.0000
0
VERTEX
8
CUT
10
34.2470
20
79.4200
30
0.0000
0
SEQEND
8
CUT
0
POLYLINE
8
CREASE
66
1
70
0
10
0.0000
20
0.0000
30
0.0000
0
VERTEX
8
CREASE
10
34.2470
20
79.4200
30
0.0000
0
VERTEX
8
CREASE
10
34.2470
20
229.7700
30
0.0000
0
SEQEND
8
CREASE
0
POLYLINE
8
CREASE
66
1
70
0
10
0.0000
20
0.0000
30
0.0000
0
VERTEX
8
CREASE
10
114.5970
20
79.4200
30
0.0000
0
VERTEX
8
CREASE
10
114.5970
20
229.7700
30
0.0000
0
SEQEND
8
CREASE
0
POLYLINE
8
CREASE
66
1
70
0
10
0.0000
20
0.0000
30
0.0000
0
VERTEX
8
CREASE
10
154.9470
20
79.4200
30
0.0000
0
VERTEX
8
CREASE
10
154.9470
20
229.7700
30
0.0000
0
SEQEND
8
CREASE
0
POLYLINE
8
CREASE
66
1
70
0
10
0.0000
20
0.0000
30
0.0000
0
VERTEX
8
CREASE
10
235.2970
20
79.4200
30
0.0000
0
VERTEX
8
CREASE
10
235.2970
20
229.7700
30
0.0000
0
SEQEND
8
CREASE
0
POLYLINE
8
CREASE
66
1
70
0
10
0.0000
20
0.0000
30
0.0000
0
VERTEX
8
CREASE
10
114.5970
20
229.7700
30
0.0000
0
VERTEX
8
CREASE
10
154.9470
20
229.7700
30
0.0000
0
SEQEND
8
CREASE
0
POLYLINE
8
CREASE
66
1
70
0
10
0.0000
20
0.0000
30
0.0000
0
VERTEX
8
CREASE
10
114.5970
20
79.4200
30
0.0000
0
VERTEX
8
CREASE
10
154.9470
20
79.4200
30
0.0000
0
SEQEND
8
CREASE
0
POLYLINE
8
CREASE
66
1
70
0
10
0.0000
20
0.0000
30
0.0000
0
VERTEX
8
CREASE
10
154.9470
20
229.7700
30
0.0000
0
VERTEX
8
CREASE
10
235.2970
20
229.7700
30
0.0000
0
SEQEND
8
CREASE
0
POLYLINE
8
CREASE
66
1
70
0
10
0.0000
20
0.0000
30
0.0000
0
VERTEX
8
CREASE
10
154.9470
20
79.4200
30
0.0000
0
VERTEX
8
CREASE
10
235.2970
20
79.4200
30
0.0000
0
SEQEND
8
CREASE
0
POLYLINE
8
CREASE
66
1
70
0
10
0.0000
20
0.0000
30
0.0000
0
VERTEX
8
CREASE
10
154.9470
20
270.1200
30
0.0000
0
VERTEX
8
CREASE
10
235.2970
20
270.1200
30
0.0000
0
SEQEND
8
CREASE
0
POLYLINE
8
CREASE
66
1
70
0
10
0.0000
20
0.0000
30
0.0000
0
VERTEX
8
CREASE
10
154.9470
20
39.0700
30
0.0000
0
VERTEX
8
CREASE
10
235.2970
20
39.0700
30
0.0000
0
SEQEND
8
CREASE
0
POLYLINE
8
CREASE
66
1
70
0
10
0.0000
20
0.0000
30
0.0000
0
VERTEX
8
CREASE
10
235.2970
20
229.7700
30
0.0000
0
VERTEX
8
CREASE
10
275.6470
20
229.7700
30
0.0000
0
SEQEND
8
CREASE
0
POLYLINE
8
CREASE
66
1
70
0
10
0.0000
20
0.0000
30
0.0000
0
VERTEX
8
CREASE
10
235.2970
20
79.4200
30
0.0000
0
VERTEX
8
CREASE
10
275.6470
20
79.4200
30
0.0000
0
SEQEND
8
CREASE
0
POLYLINE
8
GLUE
66
1
70
1
10
0.0000
20
0.0000
30
0.0000
0
VERTEX
8
GLUE
10
24.2470
20
83.4200
30
0.0000
0
VERTEX
8
GLUE
10
34.2470
20
79.4200
30
0.0000
0
VERTEX
8
GLUE
10
34.2470
20
229.7700
30
0.0000
0
VERTEX
8
GLUE
10
24.2470
20
225.7700
30
0.0000
0
SEQEND
8
GLUE
0
POLYLINE
8
DIMS
66
1
70
0
10
0.0000
20
0.0000
30
0.0000
0
VERTEX
8
DIMS
10
24.2470
20
17.0700
30
0.0000
0
VERTEX
8
DIMS
10
24.2470
20
0.0000
30
0.0000
0
SEQEND
8
DIMS
0
POLYLINE
8
DIMS
66
1
70
0
10
0.0000
20
0.0000
30
0.0000
0
VERTEX
8
DIMS
10
275.6470
20
17.0700
30
0.0000
0
VERTEX
8
DIMS
10
275.6470
20
0.0000
30
0.0000
0
SEQEND
8
DIMS
0
POLYLINE
8
DIMS
66
1
70
0
10
0.0000
20
0.0000
30
0.0000
0
VERTEX
8
DIMS
10
24.2470
20
1.6000
30
0.0000
0
VERTEX
8
DIMS
10
275.6470
20
1.6000
30
0.0000
0
SEQEND
8
DIMS
0
POLYLINE
8
DIMS
66
1
70
0
10
0.0000
20
0.0000
30
0.0000
0
VERTEX
8
DIMS
10
22.6470
20
0.0000
30
0.0000
0
VERTEX
8
DIMS
10
25.8470
20
3.2000
30
0.0000
0
SEQEND
8
DIMS
0
POLYLINE
8
DIMS
66
1
70
0
10
0.0000
20
0.0000
30
0.0000
0
VERTEX
8
DIMS
10
274.0470
20
0.0000
30
0.0000
0
VERTEX
8
DIMS
10
277.2470
20
3.2000
30
0.0000
0
SEQEND
8
DIMS
0
TEXT
8
DIMS
10
149.9470
20
5.4110
30
0.0000
40
8.4703
1
251.4 mm
50
0.0000
72
1
11
149.9470
21
5.4110
31
0.0000
0
POLYLINE
8
DIMS
66
1
70
0
10
0.0000
20
0.0000
30
0.0000
0
VERTEX
8
DIMS
10
22.2470
20
19.0700
30
0.0000
0
VERTEX
8
DIMS
10
5.1770
20
19.0700
30
0.0000
0
SEQEND
8
DIMS
0
POLYLINE
8
DIMS
66
1
70
0
10
0.0000
20
0.0000
30
0.0000
0
VERTEX
8
DIMS
10
22.2470
20
290.1200
30
0.0000
0
VERTEX
8
DIMS
10
5.1770
20
290.1200
30
0.0000
0
SEQEND
8
DIMS
0
POLYLINE
8
DIMS
66
1
70
0
10
0.0000
20
0.0000
30
0.0000
0
VERTEX
8
DIMS
10
6.7770
20
19.0700
30
0.0000
0
VERTEX
8
DIMS
10
6.7770
20
290.1200
30
0.0000
0
SEQEND
8
DIMS
0
POLYLINE
8
DIMS
66
1
70
0
10
0.0000
20
0.0000
30
0.0000
0
VERTEX
8
DIMS
10
5.1770
20
17.4700
30
0.0000
0
VERTEX
8
DIMS
10
8.3770
20
20.6700
30
0.0000
0
SEQEND
8
DIMS
0
POLYLINE
8
DIMS
66
1
70
0
10
0.0000
20
0.0000
30
0.0000
0
VERTEX
8
DIMS
10
5.1770
20
288.5200
30
0.0000
0
VERTEX
8
DIMS
10
8.3770
20
291.7200
30
0.0000
0
SEQEND
8
DIMS
0
TEXT
8
DIMS
10
2.9650
20
154.5950
30
0.0000
40
8.4703
1
271.1 mm
50
90.0000
72
1
11
2.9650
21
154.5950
31
0.0000
0
TEXT
8
DIMS
10
74.4220
20
151.6300
30
0.0000
40
7.1998
1
Front
50
0.0000
72
1
11
74.4220
21
151.6300
31
0.0000
0
TEXT
8
DIMS
10
134.7720
20
151.6300
30
0.0000
40
7.1998
1
Side
50
0.0000
72
1
11
134.7720
21
151.6300
31
0.0000
0
TEXT
8
DIMS
10
195.1220
20
151.6300
30
0.0000
40
7.1998
1
Back
50
0.0000
72
1
11
195.1220
21
151.6300
31
0.0000
0
TEXT
8
DIMS
10
255.4720
20
151.6300
30
0.0000
40
7.1998
1
Side
50
0.0000
72
1
11
255.4720
21
151.6300
31
0.0000
0
ENDSEC
0
EOF
