0
SECTION
2
HEADER
9
$ACADVER
1
AC1009
9
$INSUNITS
70
4
9
$EXTMIN
10
0.0000
20
0.0000
30
0.0000
9
$EXTMAX
10
388.8870
20
193.5440
30
0.0000
0
ENDSEC
0
SECTION
2
TABLES
0
TABLE
2
LAYER
70
4
0
LAYER
2
CUT
70
0
62
6
6
CONTINUOUS
0
LAYER
2
CREASE
70
0
62
5
6
CONTINUOUS
0
LAYER
2
GLUE
70
0
62
3
6
CONTINUOUS
0
LAYER
2
DIMS
70
0
62
9
6
CONTINUOUS
0
ENDTAB
0
ENDSEC
0
SECTION
2
ENTITIES
0
POLYLINE
8
CUT
66
1
70
1
10
0.0000
20
0.0000
30
0.0000
0
VERTEX
8
CUT
10
39.1450
20
71.4440
30
0.0000
0
VERTEX
8
CUT
10
29.1450
20
75.4440
30
0.0000
0
VERTEX
8
CUT
10
29.1450
20
187.9440
30
0.0000
0
VERTEX
8
CUT
10
39.1450
20
191.9440
30
0.0000
0
VERTEX
8
CUT
10
387.2870
20
191.9440
30
0.0000
0
VERTEX
8
CUT
10
387.2870
20
71.4440
30
0.0000
0
VERTEX
8
CUT
10
387.2870
20
71.4440
30
0.0000
0
VERTEX
8
CUT
10
376.8430
20
21.7920
30
0.0000
0
VERTEX
8
CUT
10
339.7080
20
21.7920
30
0.0000
0
VERTEX
8
CUT
10
329.2640
20
71.4440
30
0.0000
0
VERTEX
8
CUT
10
329.2640
20
71.4440
30
0.0000
0
VERTEX
8
CUT
10
318.8190
20
21.7920
30
0.0000
0
VERTEX
8
CUT
10
281.6840
20
21.7920
30
0.0000
0
VERTEX
8
CUT
10
271.2400
20
71.4440
30
0.0000
0
VERTEX
8
CUT
10
271.2400
20
71.4440
30
0.0000
0
VERTEX
8
CUT
10
260.7960
20
21.7920
30
0.0000
0
VERTEX
8
CUT
10
223.6600
20
21.7920
30
0.0000
0
VERTEX
8
CUT
10
213.2160
20
71.4440
30
0.0000
0
VERTEX
8
CUT
10
213.2160
20
71.4440
30
0.0000
0
VERTEX
8
CUT
10
202.7720
20
21.7920
30
0.0000
0
VERTEX
8
CUT
10
165.6370
20
21.7920
30
0.0000
0
VERTEX
8
CUT
10
155.1920
20
71.4440
30
0.0000
0
VERTEX
8
CUT
10
155.1920
20
71.4440
30
0.0000
0
VERTEX
8
CUT
10
144.7480
20
21.7920
30
0.0000
0
VERTEX
8
CUT
10
107.6130
20
21.7920
30
0.0000
0
VERTEX
8
CUT
10
97.1690
20
71.4440
30
0.0000
0
VERTEX
8
CUT
10
97.1690
20
71.4440
30
0.0000
0
VERTEX
8
CUT
10
86.7240
20
21.7920
30
0.0000
0
VERTEX
8
CUT
10
49.5890
20
21.7920
30
0.0000
0
VERTEX
8
CUT
10
39.1450
20
71.4440
30
0.0000
0
SEQEND
8
CUT
0
POLYLINE
8
CREASE
66
1
70
0
10
0.0000
20
0.0000
30
0.0000
0
VERTEX
8
CREASE
10
39.1450
20
71.4440
30
0.0000
0
VERTEX
8
CREASE
10
39.1450
20
191.9440
30
0.0000
0
SEQEND
8
CREASE
0
POLYLINE
8
CREASE
66
1
70
0
10
0.0000
20
0.0000
30
0.0000
0
VERTEX
8
CREASE
10
97.1690
20
71.4440
30
0.0000
0
VERTEX
8
CREASE
10
97.1690
20
191.9440
30
0.0000
0
SEQEND
8
CREASE
0
POLYLINE
8
CREASE
66
1
70
0
10
0.0000
20
0.0000
30
0.0000
0
VERTEX
8
CREASE
10
155.1920
20
71.4440
30
0.0000
0
VERTEX
8
CREASE
10
155.1920
20
191.9440
30
0.0000
0
SEQEND
8
CREASE
0
POLYLINE
8
CREASE
66
1
70
0
10
0.0000
20
0.0000
30
0.0000
0
VERTEX
8
CREASE
10
213.2160
20
71.4440
30
0.0000
0
VERTEX
8
CREASE
10
213.2160
20
191.9440
30
0.0000
0
SEQEND
8
CREASE
0
POLYLINE
8
CREASE
66
1
70
0
10
0.0000
20
0.0000
30
0.0000
0
VERTEX
8
CREASE
10
271.2400
20
71.4440
30
0.0000
0
VERTEX
8
CREASE
10
271.2400
20
191.9440
30
0.0000
0
SEQEND
8
CREASE
0
POLYLINE
8
CREASE
66
1
70
0
10
0.0000
20
0.0000
30
0.0000
0
VERTEX
8
CREASE
10
329.2640
20
71.4440
30
0.0000
0
VERTEX
8
CREASE
10
329.2640
20
191.9440
30
0.0000
0
SEQEND
8
CREASE
0
POLYLINE
8
CREASE
66
1
70
0
10
0.0000
20
0.0000
30
0.0000
0
VERTEX
8
CREASE
10
387.2870
20
71.4440
30
0.0000
0
VERTEX
8
CREASE
10
387.2870
20
191.9440
30
0.0000
0
SEQEND
8
CREASE
0
POLYLINE
8
CREASE
66
1
70
0
10
0.0000
20
0.0000
30
0.0000
0
VERTEX
8
CREASE
10
39.1450
20
71.4440
30
0.0000
0
VERTEX
8
CREASE
10
387.2870
20
71.4440
30
0.0000
0
SEQEND
8
CREASE
0
POLYLINE
8
GLUE
66
1
70
1
10
0.0000
20
0.0000
30
0.0000
0
VERTEX
8
GLUE
10
29.1450
20
75.4440
30
0.0000
0
VERTEX
8
GLUE
10
39.1450
20
71.4440
30
0.0000
0
VERTEX
8
GLUE
10
39.1450
20
191.9440
30
0.0000
0
VERTEX
8
GLUE
10
29.1450
20
187.9440
30
0.0000
0
SEQEND
8
GLUE
0
POLYLINE
8
DIMS
66
1
70
0
10
0.0000
20
0.0000
30
0.0000
0
VERTEX
8
DIMS
10
29.1450
20
19.7920
30
0.0000
0
VERTEX
8
DIMS
10
29.1450
20
0.0000
30
0.0000
0
SEQEND
8
DIMS
0
POLYLINE
8
DIMS
66
1
70
0
10
0.0000
20
0.0000
30
0.0000
0
VERTEX
8
DIMS
10
387.2870
20
19.7920
30
0.0000
0
VERTEX
8
DIMS
10
387.2870
20
0.0000
30
0.0000
0
SEQEND
8
DIMS
0
POLYLINE
8
DIMS
66
1
70
0
10
0.0000
20
0.0000
30
0.0000
0
VERTEX
8
DIMS
10
29.1450
20
1.6000
30
0.0000
0
VERTEX
8
DIMS
10
387.2870
20
1.6000
30
0.0000
0
SEQEND
8
DIMS
0
POLYLINE
8
DIMS
66
1
70
0
10
0.0000
20
0.0000
30
0.0000
0
VERTEX
8
DIMS
10
27.5450
20
0.0000
30
0.0000
0
VERTEX
8
DIMS
10
30.7450
20
3.2000
30
0.0000
0
SEQEND
8
DIMS
0
POLYLINE
8
DIMS
66
1
70
0
10
0.0000
20
0.0000
30
0.0000
0
VERTEX
8
DIMS
10
385.6870
20
0.0000
30
0.0000
0
VERTEX
8
DIMS
10
388.8870
20
3.2000
30
0.0000
0
SEQEND
8
DIMS
0
TEXT
8
DIMS
10
208.2160
20
6.6360
30
0.0000
40
11.1919
1
358.1 mm
50
0.0000
72
1
11
208.2160
21
6.6360
31
0.0000
0
POLYLINE
8
DIMS
66
1
70
0
10
0.0000
20
0.0000
30
0.0000
0
VERTEX
8
DIMS
10
27.1450
20
21.7920
30
0.0000
0
VERTEX
8
DIMS
10
7.3530
20
21.7920
30
0.0000
0
SEQEND
8
DIMS
0
POLYLINE
8
DIMS
66
1
70
0
10
0.0000
20
0.0000
30
0.0000
0
VERTEX
8
DIMS
10
27.1450
20
191.9440
30
0.0000
0
VERTEX
8
DIMS
10
7.3530
20
191.9440
30
0.0000
0
SEQEND
8
DIMS
0
POLYLINE
8
DIMS
66
1
70
0
10
0.0000
20
0.0000
30
0.0000
0
VERTEX
8
DIMS
10
8.9530
20
21.7920
30
0.0000
0
VERTEX
8
DIMS
10
8.9530
20
191.9440
30
0.0000
0
SEQEND
8
DIMS
0
POLYLINE
8
DIMS
66
1
70
0
10
0.0000
20
0.0000
30
0.0000
0
VERTEX
8
DIMS
10
7.3530
20
20.1920
30
0.0000
0
VERTEX
8
DIMS
10
10.5530
20
23.3920
30
0.0000
0
SEQEND
8
DIMS
0
POLYLINE
8
DIMS
66
1
70
0
10
0.0000
20
0.0000
30
0.0000
0
VERTEX
8
DIMS
10
7.3530
20
190.3440
30
0.0000
0
VERTEX
8
DIMS
10
10.5530
20
193.5440
30
0.0000
0
SEQEND
8
DIMS
0
TEXT
8
DIMS
10
3.9170
20
106.8680
30
0.0000
40
11.1919
1
170.2 mm
50
90.0000
72
1
11
3.9170
21
106.8680
31
0.0000
0
TEXT
8
DIMS
10
68.1570
20
127.7770
30
0.0000
40
9.5131
1
Face 1
50
0.0000
72
1
11
68.1570
21
127.7770
31
0.0000
0
TEXT
8
DIMS
10
126.1810
20
127.7770
30
0.0000
40
9.5131
1
Face 2
50
0.0000
72
1
11
126.1810
21
127.7770
31
0.0000
0
TEXT
8
DIMS
10
184.2040
20
127.7770
30
0.0000
40
9.5131
1
Face 3
50
0.0000
72
1
11
184.2040
21
127.7770
31
0.0000
0
TEXT
8
DIMS
10
242.2280
20
127.7770
30
0.0000
40
9.5131
1
Face 4
50
0.0000
72
1
11
242.2280
21
127.7770
31
0.0000
0
TEXT
8
DIMS
10
300.2520
20
127.7770
30
0.0000
40
9.5131
1
Face 5
50
0.0000
72
1
11
300.2520
21
127.7770
31
0.0000
0
TEXT
8
DIMS
10
358.2750
20
127.7770
30
0.0000
40
9.5131
1
Face 6
50
0.0000
72
1
11
358.2750
21
127.7770
31
0.0000
0
ENDSEC
0
EOF
