0
SECTION
2
HEADER
9
$ACADVER
1
AC1009
9
$INSUNITS
70
4
9
$EXTMIN
10
0.0000
20
0.0000
30
0.0000
9
$EXTMAX
10
381.8000
20
505.2000
30
0.0000
0
ENDSEC
0
SECTION
2
TABLES
0
TABLE
2
LAYER
70
3
0
LAYER
2
CUT
70
0
62
6
6
CONTINUOUS
0
LAYER
2
CREASE
70
0
62
5
6
CONTINUOUS
0
LAYER
2
DIMS
70
0
62
9
6
CONTINUOUS
0
ENDTAB
0
ENDSEC
0
SECTION
2
ENTITIES
0
POLYLINE
8
CUT
66
1
70
1
10
0.0000
20
0.0000
30
0.0000
0
VERTEX
8
CUT
10
95.7000
20
24.6000
30
0.0000
0
VERTEX
8
CUT
10
37.2000
20
24.6000
30
0.0000
0
VERTEX
8
CUT
10
37.2000
20
83.1000
30
0.0000
0
VERTEX
8
CUT
10
95.7000
20
83.1000
30
0.0000
0
VERTEX
8
CUT
10
95.7000
20
86.1000
30
0.0000
0
VERTEX
8
CUT
10
34.2000
20
86.1000
30
0.0000
0
VERTEX
8
CUT
10
34.2000
20
249.1000
30
0.0000
0
VERTEX
8
CUT
10
95.7000
20
249.1000
30
0.0000
0
VERTEX
8
CUT
10
95.7000
20
252.1000
30
0.0000
0
VERTEX
8
CUT
10
37.2000
20
252.1000
30
0.0000
0
VERTEX
8
CUT
10
37.2000
20
310.6000
30
0.0000
0
VERTEX
8
CUT
10
34.2000
20
310.6000
30
0.0000
0
VERTEX
8
CUT
10
34.2000
20
473.6000
30
0.0000
0
VERTEX
8
CUT
10
95.7000
20
473.6000
30
0.0000
0
VERTEX
8
CUT
10
99.5000
20
476.6000
30
0.0000
0
VERTEX
8
CUT
10
99.5000
20
503.6000
30
0.0000
0
VERTEX
8
CUT
10
314.9000
20
503.6000
30
0.0000
0
VERTEX
8
CUT
10
314.9000
20
476.6000
30
0.0000
0
VERTEX
8
CUT
10
318.7000
20
473.6000
30
0.0000
0
VERTEX
8
CUT
10
380.2000
20
473.6000
30
0.0000
0
VERTEX
8
CUT
10
380.2000
20
310.6000
30
0.0000
0
VERTEX
8
CUT
10
377.2000
20
310.6000
30
0.0000
0
VERTEX
8
CUT
10
377.2000
20
252.1000
30
0.0000
0
VERTEX
8
CUT
10
318.7000
20
252.1000
30
0.0000
0
VERTEX
8
CUT
10
318.7000
20
249.1000
30
0.0000
0
VERTEX
8
CUT
10
380.2000
20
249.1000
30
0.0000
0
VERTEX
8
CUT
10
380.2000
20
86.1000
30
0.0000
0
VERTEX
8
CUT
10
318.7000
20
86.1000
30
0.0000
0
VERTEX
8
CUT
10
318.7000
20
83.1000
30
0.0000
0
VERTEX
8
CUT
10
377.2000
20
83.1000
30
0.0000
0
VERTEX
8
CUT
10
377.2000
20
24.6000
30
0.0000
0
VERTEX
8
CUT
10
318.7000
20
24.6000
30
0.0000
0
SEQEND
8
CUT
0
POLYLINE
8
CREASE
66
1
70
0
10
0.0000
20
0.0000
30
0.0000
0
VERTEX
8
CREASE
10
95.7000
20
86.1000
30
0.0000
0
VERTEX
8
CREASE
10
318.7000
20
86.1000
30
0.0000
0
SEQEND
8
CREASE
0
POLYLINE
8
CREASE
66
1
70
0
10
0.0000
20
0.0000
30
0.0000
0
VERTEX
8
CREASE
10
95.7000
20
249.1000
30
0.0000
0
VERTEX
8
CREASE
10
318.7000
20
249.1000
30
0.0000
0
SEQEND
8
CREASE
0
POLYLINE
8
CREASE
66
1
70
0
10
0.0000
20
0.0000
30
0.0000
0
VERTEX
8
CREASE
10
95.7000
20
310.6000
30
0.0000
0
VERTEX
8
CREASE
10
318.7000
20
310.6000
30
0.0000
0
SEQEND
8
CREASE
0
POLYLINE
8
CREASE
66
1
70
0
10
0.0000
20
0.0000
30
0.0000
0
VERTEX
8
CREASE
10
95.7000
20
473.6000
30
0.0000
0
VERTEX
8
CREASE
10
318.7000
20
473.6000
30
0.0000
0
SEQEND
8
CREASE
0
POLYLINE
8
CREASE
66
1
70
0
10
0.0000
20
0.0000
30
0.0000
0
VERTEX
8
CREASE
10
95.7000
20
86.1000
30
0.0000
0
VERTEX
8
CREASE
10
95.7000
20
249.1000
30
0.0000
0
SEQEND
8
CREASE
0
POLYLINE
8
CREASE
66
1
70
0
10
0.0000
20
0.0000
30
0.0000
0
VERTEX
8
CREASE
10
318.7000
20
86.1000
30
0.0000
0
VERTEX
8
CREASE
10
318.7000
20
249.1000
30
0.0000
0
SEQEND
8
CREASE
0
POLYLINE
8
CREASE
66
1
70
0
10
0.0000
20
0.0000
30
0.0000
0
VERTEX
8
CREASE
10
95.7000
20
310.6000
30
0.0000
0
VERTEX
8
CREASE
10
95.7000
20
473.6000
30
0.0000
0
SEQEND
8
CREASE
0
POLYLINE
8
CREASE
66
1
70
0
10
0.0000
20
0.0000
30
0.0000
0
VERTEX
8
CREASE
10
318.7000
20
310.6000
30
0.0000
0
VERTEX
8
CREASE
10
318.7000
20
473.6000
30
0.0000
0
SEQEND
8
CREASE
0
POLYLINE
8
CREASE
66
1
70
0
10
0.0000
20
0.0000
30
0.0000
0
VERTEX
8
CREASE
10
95.7000
20
24.6000
30
0.0000
0
VERTEX
8
CREASE
10
95.7000
20
83.1000
30
0.0000
0
SEQEND
8
CREASE
0
POLYLINE
8
CREASE
66
1
70
0
10
0.0000
20
0.0000
30
0.0000
0
VERTEX
8
CREASE
10
318.7000
20
24.6000
30
0.0000
0
VERTEX
8
CREASE
10
318.7000
20
83.1000
30
0.0000
0
SEQEND
8
CREASE
0
POLYLINE
8
CREASE
66
1
70
0
10
0.0000
20
0.0000
30
0.0000
0
VERTEX
8
CREASE
10
95.7000
20
252.1000
30
0.0000
0
VERTEX
8
CREASE
10
95.7000
20
310.6000
30
0.0000
0
SEQEND
8
CREASE
0
POLYLINE
8
CREASE
66
1
70
0
10
0.0000
20
0.0000
30
0.0000
0
VERTEX
8
CREASE
10
318.7000
20
252.1000
30
0.0000
0
VERTEX
8
CREASE
10
318.7000
20
310.6000
30
0.0000
0
SEQEND
8
CREASE
0
POLYLINE
8
DIMS
66
1
70
0
10
0.0000
20
0.0000
30
0.0000
0
VERTEX
8
DIMS
10
34.2000
20
22.6000
30
0.0000
0
VERTEX
8
DIMS
10
34.2000
20
0.0000
30
0.0000
0
SEQEND
8
DIMS
0
POLYLINE
8
DIMS
66
1
70
0
10
0.0000
20
0.0000
30
0.0000
0
VERTEX
8
DIMS
10
380.2000
20
22.6000
30
0.0000
0
VERTEX
8
DIMS
10
380.2000
20
0.0000
30
0.0000
0
SEQEND
8
DIMS
0
POLYLINE
8
DIMS
66
1
70
0
10
0.0000
20
0.0000
30
0.0000
0
VERTEX
8
DIMS
10
34.2000
20
1.6000
30
0.0000
0
VERTEX
8
DIMS
10
380.2000
20
1.6000
30
0.0000
0
SEQEND
8
DIMS
0
POLYLINE
8
DIMS
66
1
70
0
10
0.0000
20
0.0000
30
0.0000
0
VERTEX
8
DIMS
10
32.6000
20
0.0000
30
0.0000
0
VERTEX
8
DIMS
10
35.8000
20
3.2000
30
0.0000
0
SEQEND
8
DIMS
0
POLYLINE
8
DIMS
66
1
70
0
10
0.0000
20
0.0000
30
0.0000
0
VERTEX
8
DIMS
10
378.6000
20
0.0000
30
0.0000
0
VERTEX
8
DIMS
10
381.8000
20
3.2000
30
0.0000
0
SEQEND
8
DIMS
0
TEXT
8
DIMS
10
207.2000
20
7.9000
30
0.0000
40
14.0000
1
346 mm
50
0.0000
72
1
11
207.2000
21
7.9000
31
0.0000
0
POLYLINE
8
DIMS
66
1
70
0
10
0.0000
20
0.0000
30
0.0000
0
VERTEX
8
DIMS
10
32.2000
20
24.6000
30
0.0000
0
VERTEX
8
DIMS
10
9.6000
20
24.6000
30
0.0000
0
SEQEND
8
DIMS
0
POLYLINE
8
DIMS
66
1
70
0
10
0.0000
20
0.0000
30
0.0000
0
VERTEX
8
DIMS
10
32.2000
20
503.6000
30
0.0000
0
VERTEX
8
DIMS
10
9.6000
20
503.6000
30
0.0000
0
SEQEND
8
DIMS
0
POLYLINE
8
DIMS
66
1
70
0
10
0.0000
20
0.0000
30
0.0000
0
VERTEX
8
DIMS
10
11.2000
20
24.6000
30
0.0000
0
VERTEX
8
DIMS
10
11.2000
20
503.6000
30
0.0000
0
SEQEND
8
DIMS
0
POLYLINE
8
DIMS
66
1
70
0
10
0.0000
20
0.0000
30
0.0000
0
VERTEX
8
DIMS
10
9.6000
20
23.0000
30
0.0000
0
VERTEX
8
DIMS
10
12.8000
20
26.2000
30
0.0000
0
SEQEND
8
DIMS
0
POLYLINE
8
DIMS
66
1
70
0
10
0.0000
20
0.0000
30
0.0000
0
VERTEX
8
DIMS
10
9.6000
20
502.0000
30
0.0000
0
VERTEX
8
DIMS
10
12.8000
20
505.2000
30
0.0000
0
SEQEND
8
DIMS
0
TEXT
8
DIMS
10
4.9000
20
264.1000
30
0.0000
40
14.0000
1
479 mm
50
90.0000
72
1
11
4.9000
21
264.1000
31
0.0000
0
TEXT
8
DIMS
10
207.2000
20
162.7000
30
0.0000
40
11.9000
1
Base
50
0.0000
72
1
11
207.2000
21
162.7000
31
0.0000
0
TEXT
8
DIMS
10
64.9500
20
162.7000
30
0.0000
40
11.9000
1
Side
50
0.0000
72
1
11
64.9500
21
162.7000
31
0.0000
0
TEXT
8
DIMS
10
349.4500
20
162.7000
30
0.0000
40
11.9000
1
Side
50
0.0000
72
1
11
349.4500
21
162.7000
31
0.0000
0
TEXT
8
DIMS
10
207.2000
20
50.4500
30
0.0000
40
11.9000
1
Front
50
0.0000
72
1
11
207.2000
21
50.4500
31
0.0000
0
TEXT
8
DIMS
10
207.2000
20
274.9500
30
0.0000
40
11.9000
1
Back
50
0.0000
72
1
11
207.2000
21
274.9500
31
0.0000
0
TEXT
8
DIMS
10
207.2000
20
387.2000
30
0.0000
40
11.9000
1
Lid
50
0.0000
72
1
11
207.2000
21
387.2000
31
0.0000
0
ENDSEC
0
EOF
