0
SECTION
2
HEADER
9
$ACADVER
1
AC1009
9
$INSUNITS
70
4
9
$EXTMIN
10
0.0000
20
0.0000
30
0.0000
9
$EXTMAX
10
212.2380
20
138.1660
30
0.0000
0
ENDSEC
0
SECTION
2
TABLES
0
TABLE
2
LAYER
70
4
0
LAYER
2
CUT
70
0
62
6
6
CONTINUOUS
0
LAYER
2
CREASE
70
0
62
5
6
CONTINUOUS
0
LAYER
2
GLUE
70
0
62
3
6
CONTINUOUS
0
LAYER
2
DIMS
70
0
62
9
6
CONTINUOUS
0
ENDTAB
0
ENDSEC
0
SECTION
2
ENTITIES
0
POLYLINE
8
CUT
66
1
70
1
10
0.0000
20
0.0000
30
0.0000
0
VERTEX
8
CUT
10
29.6380
20
16.5660
30
0.0000
0
VERTEX
8
CUT
10
19.7380
20
20.5260
30
0.0000
0
VERTEX
8
CUT
10
19.7380
20
132.6060
30
0.0000
0
VERTEX
8
CUT
10
29.6380
20
136.5660
30
0.0000
0
VERTEX
8
CUT
10
29.6380
20
136.5660
30
0.0000
0
VERTEX
8
CUT
10
32.7120
20
132.9670
30
0.0000
0
VERTEX
8
CUT
10
36.0710
20
129.6330
30
0.0000
0
VERTEX
8
CUT
10
39.6920
20
126.5870
30
0.0000
0
VERTEX
8
CUT
10
43.5520
20
123.8480
30
0.0000
0
VERTEX
8
CUT
10
47.6240
20
121.4360
30
0.0000
0
VERTEX
8
CUT
10
51.8800
20
119.3670
30
0.0000
0
VERTEX
8
CUT
10
56.2920
20
117.6540
30
0.0000
0
VERTEX
8
CUT
10
60.8300
20
116.3100
30
0.0000
0
VERTEX
8
CUT
10
65.4630
20
115.3430
30
0.0000
0
VERTEX
8
CUT
10
70.1590
20
114.7610
30
0.0000
0
VERTEX
8
CUT
10
74.8880
20
114.5660
30
0.0000
0
VERTEX
8
CUT
10
79.6170
20
114.7610
30
0.0000
0
VERTEX
8
CUT
10
84.3130
20
115.3430
30
0.0000
0
VERTEX
8
CUT
10
88.9460
20
116.3100
30
0.0000
0
VERTEX
8
CUT
10
93.4840
20
117.6540
30
0.0000
0
VERTEX
8
CUT
10
97.8960
20
119.3670
30
0.0000
0
VERTEX
8
CUT
10
102.1520
20
121.4360
30
0.0000
0
VERTEX
8
CUT
10
106.2240
20
123.8480
30
0.0000
0
VERTEX
8
CUT
10
110.0840
20
126.5870
30
0.0000
0
VERTEX
8
CUT
10
113.7050
20
129.6330
30
0.0000
0
VERTEX
8
CUT
10
117.0640
20
132.9670
30
0.0000
0
VERTEX
8
CUT
10
120.1380
20
136.5660
30
0.0000
0
VERTEX
8
CUT
10
120.1380
20
136.5660
30
0.0000
0
VERTEX
8
CUT
10
123.2120
20
132.9670
30
0.0000
0
VERTEX
8
CUT
10
126.5710
20
129.6330
30
0.0000
0
VERTEX
8
CUT
10
130.1920
20
126.5870
30
0.0000
0
VERTEX
8
CUT
10
134.0520
20
123.8480
30
0.0000
0
VERTEX
8
CUT
10
138.1240
20
121.4360
30
0.0000
0
VERTEX
8
CUT
10
142.3800
20
119.3670
30
0.0000
0
VERTEX
8
CUT
10
146.7920
20
117.6540
30
0.0000
0
VERTEX
8
CUT
10
151.3300
20
116.3100
30
0.0000
0
VERTEX
8
CUT
10
155.9630
20
115.3430
30
0.0000
0
VERTEX
8
CUT
10
160.6590
20
114.7610
30
0.0000
0
VERTEX
8
CUT
10
165.3880
20
114.5660
30
0.0000
0
VERTEX
8
CUT
10
170.1170
20
114.7610
30
0.0000
0
VERTEX
8
CUT
10
174.8130
20
115.3430
30
0.0000
0
VERTEX
8
CUT
10
179.4460
20
116.3100
30
0.0000
0
VERTEX
8
CUT
10
183.9840
20
117.6540
30
0.0000
0
VERTEX
8
CUT
10
188.3960
20
119.3670
30
0.0000
0
VERTEX
8
CUT
10
192.6520
20
121.4360
30
0.0000
0
VERTEX
8
CUT
10
196.7240
20
123.8480
30
0.0000
0
VERTEX
8
CUT
10
200.5840
20
126.5870
30
0.0000
0
VERTEX
8
CUT
10
204.2050
20
129.6330
30
0.0000
0
VERTEX
8
CUT
10
207.5640
20
132.9670
30
0.0000
0
VERTEX
8
CUT
10
210.6380
20
136.5660
30
0.0000
0
VERTEX
8
CUT
10
210.6380
20
16.5660
30
0.0000
0
VERTEX
8
CUT
10
210.6380
20
16.5660
30
0.0000
0
VERTEX
8
CUT
10
207.5640
20
20.1650
30
0.0000
0
VERTEX
8
CUT
10
204.2050
20
23.4990
30
0.0000
0
VERTEX
8
CUT
10
200.5840
20
26.5450
30
0.0000
0
VERTEX
8
CUT
10
196.7240
20
29.2840
30
0.0000
0
VERTEX
8
CUT
10
192.6520
20
31.6960
30
0.0000
0
VERTEX
8
CUT
10
188.3960
20
33.7650
30
0.0000
0
VERTEX
8
CUT
10
183.9840
20
35.4780
30
0.0000
0
VERTEX
8
CUT
10
179.4460
20
36.8220
30
0.0000
0
VERTEX
8
CUT
10
174.8130
20
37.7890
30
0.0000
0
VERTEX
8
CUT
10
170.1170
20
38.3710
30
0.0000
0
VERTEX
8
CUT
10
165.3880
20
38.5660
30
0.0000
0
VERTEX
8
CUT
10
160.6590
20
38.3710
30
0.0000
0
VERTEX
8
CUT
10
155.9630
20
37.7890
30
0.0000
0
VERTEX
8
CUT
10
151.3300
20
36.8220
30
0.0000
0
VERTEX
8
CUT
10
146.7920
20
35.4780
30
0.0000
0
VERTEX
8
CUT
10
142.3800
20
33.7650
30
0.0000
0
VERTEX
8
CUT
10
138.1240
20
31.6960
30
0.0000
0
VERTEX
8
CUT
10
134.0520
20
29.2840
30
0.0000
0
VERTEX
8
CUT
10
130.1920
20
26.5450
30
0.0000
0
VERTEX
8
CUT
10
126.5710
20
23.4990
30
0.0000
0
VERTEX
8
CUT
10
123.2120
20
20.1650
30
0.0000
0
VERTEX
8
CUT
10
120.1380
20
16.5660
30
0.0000
0
VERTEX
8
CUT
10
120.1380
20
16.5660
30
0.0000
0
VERTEX
8
CUT
10
117.0640
20
20.1650
30
0.0000
0
VERTEX
8
CUT
10
113.7050
20
23.4990
30
0.0000
0
VERTEX
8
CUT
10
110.0840
20
26.5450
30
0.0000
0
VERTEX
8
CUT
10
106.2240
20
29.2840
30
0.0000
0
VERTEX
8
CUT
10
102.1520
20
31.6960
30
0.0000
0
VERTEX
8
CUT
10
97.8960
20
33.7650
30
0.0000
0
VERTEX
8
CUT
10
93.4840
20
35.4780
30
0.0000
0
VERTEX
8
CUT
10
88.9460
20
36.8220
30
0.0000
0
VERTEX
8
CUT
10
84.3130
20
37.7890
30
0.0000
0
VERTEX
8
CUT
10
79.6170
20
38.3710
30
0.0000
0
VERTEX
8
CUT
10
74.8880
20
38.5660
30
0.0000
0
VERTEX
8
CUT
10
70.1590
20
38.3710
30
0.0000
0
VERTEX
8
CUT
10
65.4630
20
37.7890
30
0.0000
0
VERTEX
8
CUT
10
60.8300
20
36.8220
30
0.0000
0
VERTEX
8
CUT
10
56.2920
20
35.4780
30
0.0000
0
VERTEX
8
CUT
10
51.8800
20
33.7650
30
0.0000
0
VERTEX
8
CUT
10
47.6240
20
31.6960
30
0.0000
0
VERTEX
8
CUT
10
43.5520
20
29.2840
30
0.0000
0
VERTEX
8
CUT
10
39.6920
20
26.5450
30
0.0000
0
VERTEX
8
CUT
10
36.0710
20
23.4990
30
0.0000
0
VERTEX
8
CUT
10
32.7120
20
20.1650
30
0.0000
0
VERTEX
8
CUT
10
29.6380
20
16.5660
30
0.0000
0
SEQEND
8
CUT
0
POLYLINE
8
CREASE
66
1
70
0
10
0.0000
20
0.0000
30
0.0000
0
VERTEX
8
CREASE
10
29.6380
20
16.5660
30
0.0000
0
VERTEX
8
CREASE
10
29.6380
20
136.5660
30
0.0000
0
SEQEND
8
CREASE
0
POLYLINE
8
CREASE
66
1
70
0
10
0.0000
20
0.0000
30
0.0000
0
VERTEX
8
CREASE
10
120.1380
20
16.5660
30
0.0000
0
VERTEX
8
CREASE
10
120.1380
20
136.5660
30
0.0000
0
SEQEND
8
CREASE
0
POLYLINE
8
GLUE
66
1
70
1
10
0.0000
20
0.0000
30
0.0000
0
VERTEX
8
GLUE
10
19.7380
20
20.5260
30
0.0000
0
VERTEX
8
GLUE
10
29.6380
20
16.5660
30
0.0000
0
VERTEX
8
GLUE
10
29.6380
20
136.5660
30
0.0000
0
VERTEX
8
GLUE
10
19.7380
20
132.6060
30
0.0000
0
SEQEND
8
GLUE
0
POLYLINE
8
DIMS
66
1
70
0
10
0.0000
20
0.0000
30
0.0000
0
VERTEX
8
DIMS
10
19.7380
20
14.5660
30
0.0000
0
VERTEX
8
DIMS
10
19.7380
20
0.0000
30
0.0000
0
SEQEND
8
DIMS
0
POLYLINE
8
DIMS
66
1
70
0
10
0.0000
20
0.0000
30
0.0000
0
VERTEX
8
DIMS
10
210.6380
20
14.5660
30
0.0000
0
VERTEX
8
DIMS
10
210.6380
20
0.0000
30
0.0000
0
SEQEND
8
DIMS
0
POLYLINE
8
DIMS
66
1
70
0
10
0.0000
20
0.0000
30
0.0000
0
VERTEX
8
DIMS
10
19.7380
20
1.6000
30
0.0000
0
VERTEX
8
DIMS
10
210.6380
20
1.6000
30
0.0000
0
SEQEND
8
DIMS
0
POLYLINE
8
DIMS
66
1
70
0
10
0.0000
20
0.0000
30
0.0000
0
VERTEX
8
DIMS
10
18.1380
20
0.0000
30
0.0000
0
VERTEX
8
DIMS
10
21.3380
20
3.2000
30
0.0000
0
SEQEND
8
DIMS
0
POLYLINE
8
DIMS
66
1
70
0
10
0.0000
20
0.0000
30
0.0000
0
VERTEX
8
DIMS
10
209.0380
20
0.0000
30
0.0000
0
VERTEX
8
DIMS
10
212.2380
20
3.2000
30
0.0000
0
SEQEND
8
DIMS
0
TEXT
8
DIMS
10
115.1880
20
4.2850
30
0.0000
40
5.9656
1
190.9 mm
50
0.0000
72
1
11
115.1880
21
4.2850
31
0.0000
0
POLYLINE
8
DIMS
66
1
70
0
10
0.0000
20
0.0000
30
0.0000
0
VERTEX
8
DIMS
10
17.7380
20
16.5660
30
0.0000
0
VERTEX
8
DIMS
10
3.1720
20
16.5660
30
0.0000
0
SEQEND
8
DIMS
0
POLYLINE
8
DIMS
66
1
70
0
10
0.0000
20
0.0000
30
0.0000
0
VERTEX
8
DIMS
10
17.7380
20
136.5660
30
0.0000
0
VERTEX
8
DIMS
10
3.1720
20
136.5660
30
0.0000
0
SEQEND
8
DIMS
0
POLYLINE
8
DIMS
66
1
70
0
10
0.0000
20
0.0000
30
0.0000
0
VERTEX
8
DIMS
10
4.7720
20
16.5660
30
0.0000
0
VERTEX
8
DIMS
10
4.7720
20
136.5660
30
0.0000
0
SEQEND
8
DIMS
0
POLYLINE
8
DIMS
66
1
70
0
10
0.0000
20
0.0000
30
0.0000
0
VERTEX
8
DIMS
10
3.1720
20
14.9660
30
0.0000
0
VERTEX
8
DIMS
10
6.3720
20
18.1660
30
0.0000
0
SEQEND
8
DIMS
0
POLYLINE
8
DIMS
66
1
70
0
10
0.0000
20
0.0000
30
0.0000
0
VERTEX
8
DIMS
10
3.1720
20
134.9660
30
0.0000
0
VERTEX
8
DIMS
10
6.3720
20
138.1660
30
0.0000
0
SEQEND
8
DIMS
0
TEXT
8
DIMS
10
2.0880
20
76.5660
30
0.0000
40
5.9656
1
120 mm
50
90.0000
72
1
11
2.0880
21
76.5660
31
0.0000
0
ENDSEC
0
EOF
