0
SECTION
2
HEADER
9
$ACADVER
1
AC1009
9
$INSUNITS
70
4
9
$EXTMIN
10
0.0000
20
0.0000
30
0.0000
9
$EXTMAX
10
782.8000
20
279.2000
30
0.0000
0
ENDSEC
0
SECTION
2
TABLES
0
TABLE
2
LAYER
70
4
0
LAYER
2
CUT
70
0
62
6
6
CONTINUOUS
0
LAYER
2
CREASE
70
0
62
5
6
CONTINUOUS
0
LAYER
2
GLUE
70
0
62
3
6
CONTINUOUS
0
LAYER
2
DIMS
70
0
62
9
6
CONTINUOUS
0
ENDTAB
0
ENDSEC
0
SECTION
2
ENTITIES
0
POLYLINE
8
CUT
66
1
70
1
10
0.0000
20
0.0000
30
0.0000
0
VERTEX
8
CUT
10
69.2000
20
99.6000
30
0.0000
0
VERTEX
8
CUT
10
34.2000
20
105.6000
30
0.0000
0
VERTEX
8
CUT
10
34.2000
20
196.6000
30
0.0000
0
VERTEX
8
CUT
10
69.2000
20
202.6000
30
0.0000
0
VERTEX
8
CUT
10
69.2000
20
277.6000
30
0.0000
0
VERTEX
8
CUT
10
270.7000
20
277.6000
30
0.0000
0
VERTEX
8
CUT
10
270.7000
20
202.6000
30
0.0000
0
VERTEX
8
CUT
10
273.7000
20
202.6000
30
0.0000
0
VERTEX
8
CUT
10
273.7000
20
277.6000
30
0.0000
0
VERTEX
8
CUT
10
423.7000
20
277.6000
30
0.0000
0
VERTEX
8
CUT
10
423.7000
20
202.6000
30
0.0000
0
VERTEX
8
CUT
10
426.7000
20
202.6000
30
0.0000
0
VERTEX
8
CUT
10
426.7000
20
277.6000
30
0.0000
0
VERTEX
8
CUT
10
626.7000
20
277.6000
30
0.0000
0
VERTEX
8
CUT
10
626.7000
20
202.6000
30
0.0000
0
VERTEX
8
CUT
10
629.7000
20
202.6000
30
0.0000
0
VERTEX
8
CUT
10
629.7000
20
277.6000
30
0.0000
0
VERTEX
8
CUT
10
781.2000
20
277.6000
30
0.0000
0
VERTEX
8
CUT
10
781.2000
20
24.6000
30
0.0000
0
VERTEX
8
CUT
10
629.7000
20
24.6000
30
0.0000
0
VERTEX
8
CUT
10
629.7000
20
99.6000
30
0.0000
0
VERTEX
8
CUT
10
626.7000
20
99.6000
30
0.0000
0
VERTEX
8
CUT
10
626.7000
20
24.6000
30
0.0000
0
VERTEX
8
CUT
10
426.7000
20
24.6000
30
0.0000
0
VERTEX
8
CUT
10
426.7000
20
99.6000
30
0.0000
0
VERTEX
8
CUT
10
423.7000
20
99.6000
30
0.0000
0
VERTEX
8
CUT
10
423.7000
20
24.6000
30
0.0000
0
VERTEX
8
CUT
10
273.7000
20
24.6000
30
0.0000
0
VERTEX
8
CUT
10
273.7000
20
99.6000
30
0.0000
0
VERTEX
8
CUT
10
270.7000
20
99.6000
30
0.0000
0
VERTEX
8
CUT
10
270.7000
20
24.6000
30
0.0000
0
VERTEX
8
CUT
10
69.2000
20
24.6000
30
0.0000
0
SEQEND
8
CUT
0
POLYLINE
8
CREASE
66
1
70
0
10
0.0000
20
0.0000
30
0.0000
0
VERTEX
8
CREASE
10
69.2000
20
99.6000
30
0.0000
0
VERTEX
8
CREASE
10
69.2000
20
202.6000
30
0.0000
0
SEQEND
8
CREASE
0
POLYLINE
8
CREASE
66
1
70
0
10
0.0000
20
0.0000
30
0.0000
0
VERTEX
8
CREASE
10
272.2000
20
99.6000
30
0.0000
0
VERTEX
8
CREASE
10
272.2000
20
202.6000
30
0.0000
0
SEQEND
8
CREASE
0
POLYLINE
8
CREASE
66
1
70
0
10
0.0000
20
0.0000
30
0.0000
0
VERTEX
8
CREASE
10
425.2000
20
99.6000
30
0.0000
0
VERTEX
8
CREASE
10
425.2000
20
202.6000
30
0.0000
0
SEQEND
8
CREASE
0
POLYLINE
8
CREASE
66
1
70
0
10
0.0000
20
0.0000
30
0.0000
0
VERTEX
8
CREASE
10
628.2000
20
99.6000
30
0.0000
0
VERTEX
8
CREASE
10
628.2000
20
202.6000
30
0.0000
0
SEQEND
8
CREASE
0
POLYLINE
8
CREASE
66
1
70
0
10
0.0000
20
0.0000
30
0.0000
0
VERTEX
8
CREASE
10
69.2000
20
99.6000
30
0.0000
0
VERTEX
8
CREASE
10
270.7000
20
99.6000
30
0.0000
0
SEQEND
8
CREASE
0
POLYLINE
8
CREASE
66
1
70
0
10
0.0000
20
0.0000
30
0.0000
0
VERTEX
8
CREASE
10
69.2000
20
202.6000
30
0.0000
0
VERTEX
8
CREASE
10
270.7000
20
202.6000
30
0.0000
0
SEQEND
8
CREASE
0
POLYLINE
8
CREASE
66
1
70
0
10
0.0000
20
0.0000
30
0.0000
0
VERTEX
8
CREASE
10
273.7000
20
99.6000
30
0.0000
0
VERTEX
8
CREASE
10
423.7000
20
99.6000
30
0.0000
0
SEQEND
8
CREASE
0
POLYLINE
8
CREASE
66
1
70
0
10
0.0000
20
0.0000
30
0.0000
0
VERTEX
8
CREASE
10
273.7000
20
202.6000
30
0.0000
0
VERTEX
8
CREASE
10
423.7000
20
202.6000
30
0.0000
0
SEQEND
8
CREASE
0
POLYLINE
8
CREASE
66
1
70
0
10
0.0000
20
0.0000
30
0.0000
0
VERTEX
8
CREASE
10
426.7000
20
99.6000
30
0.0000
0
VERTEX
8
CREASE
10
626.7000
20
99.6000
30
0.0000
0
SEQEND
8
CREASE
0
POLYLINE
8
CREASE
66
1
70
0
10
0.0000
20
0.0000
30
0.0000
0
VERTEX
8
CREASE
10
426.7000
20
202.6000
30
0.0000
0
VERTEX
8
CREASE
10
626.7000
20
202.6000
30
0.0000
0
SEQEND
8
CREASE
0
POLYLINE
8
CREASE
66
1
70
0
10
0.0000
20
0.0000
30
0.0000
0
VERTEX
8
CREASE
10
629.7000
20
99.6000
30
0.0000
0
VERTEX
8
CREASE
10
781.2000
20
99.6000
30
0.0000
0
SEQEND
8
CREASE
0
POLYLINE
8
CREASE
66
1
70
0
10
0.0000
20
0.0000
30
0.0000
0
VERTEX
8
CREASE
10
629.7000
20
202.6000
30
0.0000
0
VERTEX
8
CREASE
10
781.2000
20
202.6000
30
0.0000
0
SEQEND
8
CREASE
0
POLYLINE
8
GLUE
66
1
70
1
10
0.0000
20
0.0000
30
0.0000
0
VERTEX
8
GLUE
10
34.2000
20
105.6000
30
0.0000
0
VERTEX
8
GLUE
10
69.2000
20
99.6000
30
0.0000
0
VERTEX
8
GLUE
10
69.2000
20
202.6000
30
0.0000
0
VERTEX
8
GLUE
10
34.2000
20
196.6000
30
0.0000
0
SEQEND
8
GLUE
0
POLYLINE
8
DIMS
66
1
70
0
10
0.0000
20
0.0000
30
0.0000
0
VERTEX
8
DIMS
10
34.2000
20
22.6000
30
0.0000
0
VERTEX
8
DIMS
10
34.2000
20
0.0000
30
0.0000
0
SEQEND
8
DIMS
0
POLYLINE
8
DIMS
66
1
70
0
10
0.0000
20
0.0000
30
0.0000
0
VERTEX
8
DIMS
10
781.2000
20
22.6000
30
0.0000
0
VERTEX
8
DIMS
10
781.2000
20
0.0000
30
0.0000
0
SEQEND
8
DIMS
0
POLYLINE
8
DIMS
66
1
70
0
10
0.0000
20
0.0000
30
0.0000
0
VERTEX
8
DIMS
10
34.2000
20
1.6000
30
0.0000
0
VERTEX
8
DIMS
10
781.2000
20
1.6000
30
0.0000
0
SEQEND
8
DIMS
0
POLYLINE
8
DIMS
66
1
70
0
10
0.0000
20
0.0000
30
0.0000
0
VERTEX
8
DIMS
10
32.6000
20
0.0000
30
0.0000
0
VERTEX
8
DIMS
10
35.8000
20
3.2000
30
0.0000
0
SEQEND
8
DIMS
0
POLYLINE
8
DIMS
66
1
70
0
10
0.0000
20
0.0000
30
0.0000
0
VERTEX
8
DIMS
10
779.6000
20
0.0000
30
0.0000
0
VERTEX
8
DIMS
10
782.8000
20
3.2000
30
0.0000
0
SEQEND
8
DIMS
0
TEXT
8
DIMS
10
407.7000
20
7.9000
30
0.0000
40
14.0000
1
747 mm
50
0.0000
72
1
11
407.7000
21
7.9000
31
0.0000
0
POLYLINE
8
DIMS
66
1
70
0
10
0.0000
20
0.0000
30
0.0000
0
VERTEX
8
DIMS
10
32.2000
20
24.6000
30
0.0000
0
VERTEX
8
DIMS
10
9.6000
20
24.6000
30
0.0000
0
SEQEND
8
DIMS
0
POLYLINE
8
DIMS
66
1
70
0
10
0.0000
20
0.0000
30
0.0000
0
VERTEX
8
DIMS
10
32.2000
20
277.6000
30
0.0000
0
VERTEX
8
DIMS
10
9.6000
20
277.6000
30
0.0000
0
SEQEND
8
DIMS
0
POLYLINE
8
DIMS
66
1
70
0
10
0.0000
20
0.0000
30
0.0000
0
VERTEX
8
DIMS
10
11.2000
20
24.6000
30
0.0000
0
VERTEX
8
DIMS
10
11.2000
20
277.6000
30
0.0000
0
SEQEND
8
DIMS
0
POLYLINE
8
DIMS
66
1
70
0
10
0.0000
20
0.0000
30
0.0000
0
VERTEX
8
DIMS
10
9.6000
20
23.0000
30
0.0000
0
VERTEX
8
DIMS
10
12.8000
20
26.2000
30
0.0000
0
SEQEND
8
DIMS
0
POLYLINE
8
DIMS
66
1
70
0
10
0.0000
20
0.0000
30
0.0000
0
VERTEX
8
DIMS
10
9.6000
20
276.0000
30
0.0000
0
VERTEX
8
DIMS
10
12.8000
20
279.2000
30
0.0000
0
SEQEND
8
DIMS
0
TEXT
8
DIMS
10
4.9000
20
151.1000
30
0.0000
40
14.0000
1
253 mm
50
90.0000
72
1
11
4.9000
21
151.1000
31
0.0000
0
TEXT
8
DIMS
10
170.7000
20
146.2000
30
0.0000
40
11.9000
1
Side
50
0.0000
72
1
11
170.7000
21
146.2000
31
0.0000
0
TEXT
8
DIMS
10
348.7000
20
146.2000
30
0.0000
40
11.9000
1
End
50
0.0000
72
1
11
348.7000
21
146.2000
31
0.0000
0
TEXT
8
DIMS
10
526.7000
20
146.2000
30
0.0000
40
11.9000
1
Side
50
0.0000
72
1
11
526.7000
21
146.2000
31
0.0000
0
TEXT
8
DIMS
10
704.7000
20
146.2000
30
0.0000
40
11.9000
1
End
50
0.0000
72
1
11
704.7000
21
146.2000
31
0.0000
0
ENDSEC
0
EOF
