0
SECTION
2
HEADER
9
$ACADVER
1
AC1009
9
$INSUNITS
70
4
9
$EXTMIN
10
0.0000
20
0.0000
30
0.0000
9
$EXTMAX
10
747.8000
20
126.2000
30
0.0000
0
ENDSEC
0
SECTION
2
TABLES
0
TABLE
2
LAYER
70
4
0
LAYER
2
CUT
70
0
62
6
6
CONTINUOUS
0
LAYER
2
CREASE
70
0
62
5
6
CONTINUOUS
0
LAYER
2
GLUE
70
0
62
3
6
CONTINUOUS
0
LAYER
2
DIMS
70
0
62
9
6
CONTINUOUS
0
ENDTAB
0
ENDSEC
0
SECTION
2
ENTITIES
0
POLYLINE
8
CUT
66
1
70
1
10
0.0000
20
0.0000
30
0.0000
0
VERTEX
8
CUT
10
44.2000
20
24.6000
30
0.0000
0
VERTEX
8
CUT
10
34.2000
20
28.6000
30
0.0000
0
VERTEX
8
CUT
10
34.2000
20
120.6000
30
0.0000
0
VERTEX
8
CUT
10
44.2000
20
124.6000
30
0.0000
0
VERTEX
8
CUT
10
746.2000
20
124.6000
30
0.0000
0
VERTEX
8
CUT
10
746.2000
20
24.6000
30
0.0000
0
SEQEND
8
CUT
0
POLYLINE
8
CREASE
66
1
70
0
10
0.0000
20
0.0000
30
0.0000
0
VERTEX
8
CREASE
10
44.2000
20
24.6000
30
0.0000
0
VERTEX
8
CREASE
10
44.2000
20
124.6000
30
0.0000
0
SEQEND
8
CREASE
0
POLYLINE
8
CREASE
66
1
70
0
10
0.0000
20
0.0000
30
0.0000
0
VERTEX
8
CREASE
10
244.7000
20
24.6000
30
0.0000
0
VERTEX
8
CREASE
10
244.7000
20
124.6000
30
0.0000
0
SEQEND
8
CREASE
0
POLYLINE
8
CREASE
66
1
70
0
10
0.0000
20
0.0000
30
0.0000
0
VERTEX
8
CREASE
10
395.2000
20
24.6000
30
0.0000
0
VERTEX
8
CREASE
10
395.2000
20
124.6000
30
0.0000
0
SEQEND
8
CREASE
0
POLYLINE
8
CREASE
66
1
70
0
10
0.0000
20
0.0000
30
0.0000
0
VERTEX
8
CREASE
10
595.7000
20
24.6000
30
0.0000
0
VERTEX
8
CREASE
10
595.7000
20
124.6000
30
0.0000
0
SEQEND
8
CREASE
0
POLYLINE
8
GLUE
66
1
70
1
10
0.0000
20
0.0000
30
0.0000
0
VERTEX
8
GLUE
10
34.2000
20
28.6000
30
0.0000
0
VERTEX
8
GLUE
10
44.2000
20
24.6000
30
0.0000
0
VERTEX
8
GLUE
10
44.2000
20
124.6000
30
0.0000
0
VERTEX
8
GLUE
10
34.2000
20
120.6000
30
0.0000
0
SEQEND
8
GLUE
0
POLYLINE
8
DIMS
66
1
70
0
10
0.0000
20
0.0000
30
0.0000
0
VERTEX
8
DIMS
10
34.2000
20
22.6000
30
0.0000
0
VERTEX
8
DIMS
10
34.2000
20
0.0000
30
0.0000
0
SEQEND
8
DIMS
0
POLYLINE
8
DIMS
66
1
70
0
10
0.0000
20
0.0000
30
0.0000
0
VERTEX
8
DIMS
10
746.2000
20
22.6000
30
0.0000
0
VERTEX
8
DIMS
10
746.2000
20
0.0000
30
0.0000
0
SEQEND
8
DIMS
0
POLYLINE
8
DIMS
66
1
70
0
10
0.0000
20
0.0000
30
0.0000
0
VERTEX
8
DIMS
10
34.2000
20
1.6000
30
0.0000
0
VERTEX
8
DIMS
10
746.2000
20
1.6000
30
0.0000
0
SEQEND
8
DIMS
0
POLYLINE
8
DIMS
66
1
70
0
10
0.0000
20
0.0000
30
0.0000
0
VERTEX
8
DIMS
10
32.6000
20
0.0000
30
0.0000
0
VERTEX
8
DIMS
10
35.8000
20
3.2000
30
0.0000
0
SEQEND
8
DIMS
0
POLYLINE
8
DIMS
66
1
70
0
10
0.0000
20
0.0000
30
0.0000
0
VERTEX
8
DIMS
10
744.6000
20
0.0000
30
0.0000
0
VERTEX
8
DIMS
10
747.8000
20
3.2000
30
0.0000
0
SEQEND
8
DIMS
0
TEXT
8
DIMS
10
390.2000
20
7.9000
30
0.0000
40
14.0000
1
712 mm
50
0.0000
72
1
11
390.2000
21
7.9000
31
0.0000
0
POLYLINE
8
DIMS
66
1
70
0
10
0.0000
20
0.0000
30
0.0000
0
VERTEX
8
DIMS
10
32.2000
20
24.6000
30
0.0000
0
VERTEX
8
DIMS
10
9.6000
20
24.6000
30
0.0000
0
SEQEND
8
DIMS
0
POLYLINE
8
DIMS
66
1
70
0
10
0.0000
20
0.0000
30
0.0000
0
VERTEX
8
DIMS
10
32.2000
20
124.6000
30
0.0000
0
VERTEX
8
DIMS
10
9.6000
20
124.6000
30
0.0000
0
SEQEND
8
DIMS
0
POLYLINE
8
DIMS
66
1
70
0
10
0.0000
20
0.0000
30
0.0000
0
VERTEX
8
DIMS
10
11.2000
20
24.6000
30
0.0000
0
VERTEX
8
DIMS
10
11.2000
20
124.6000
30
0.0000
0
SEQEND
8
DIMS
0
POLYLINE
8
DIMS
66
1
70
0
10
0.0000
20
0.0000
30
0.0000
0
VERTEX
8
DIMS
10
9.6000
20
23.0000
30
0.0000
0
VERTEX
8
DIMS
10
12.8000
20
26.2000
30
0.0000
0
SEQEND
8
DIMS
0
POLYLINE
8
DIMS
66
1
70
0
10
0.0000
20
0.0000
30
0.0000
0
VERTEX
8
DIMS
10
9.6000
20
123.0000
30
0.0000
0
VERTEX
8
DIMS
10
12.8000
20
126.2000
30
0.0000
0
SEQEND
8
DIMS
0
TEXT
8
DIMS
10
4.9000
20
74.6000
30
0.0000
40
14.0000
1
100 mm
50
90.0000
72
1
11
4.9000
21
74.6000
31
0.0000
0
TEXT
8
DIMS
10
144.4500
20
69.7000
30
0.0000
40
11.9000
1
Side
50
0.0000
72
1
11
144.4500
21
69.7000
31
0.0000
0
TEXT
8
DIMS
10
319.9500
20
69.7000
30
0.0000
40
11.9000
1
End
50
0.0000
72
1
11
319.9500
21
69.7000
31
0.0000
0
TEXT
8
DIMS
10
495.4500
20
69.7000
30
0.0000
40
11.9000
1
Side
50
0.0000
72
1
11
495.4500
21
69.7000
31
0.0000
0
TEXT
8
DIMS
10
670.9500
20
69.7000
30
0.0000
40
11.9000
1
End
50
0.0000
72
1
11
670.9500
21
69.7000
31
0.0000
0
ENDSEC
0
EOF
