0
SECTION
2
HEADER
9
$ACADVER
1
AC1009
9
$INSUNITS
70
4
9
$EXTMIN
10
0.0000
20
0.0000
30
0.0000
9
$EXTMAX
10
324.9400
20
269.1000
30
0.0000
0
ENDSEC
0
SECTION
2
TABLES
0
TABLE
2
LAYER
70
3
0
LAYER
2
CUT
70
0
62
6
6
CONTINUOUS
0
LAYER
2
CREASE
70
0
62
5
6
CONTINUOUS
0
LAYER
2
DIMS
70
0
62
9
6
CONTINUOUS
0
ENDTAB
0
ENDSEC
0
SECTION
2
ENTITIES
0
POLYLINE
8
CUT
66
1
70
1
10
0.0000
20
0.0000
30
0.0000
0
VERTEX
8
CUT
10
71.4900
20
19.9000
30
0.0000
0
VERTEX
8
CUT
10
27.2400
20
19.9000
30
0.0000
0
VERTEX
8
CUT
10
27.2400
20
64.1500
30
0.0000
0
VERTEX
8
CUT
10
71.4900
20
64.1500
30
0.0000
0
VERTEX
8
CUT
10
71.4900
20
65.6500
30
0.0000
0
VERTEX
8
CUT
10
25.7400
20
65.6500
30
0.0000
0
VERTEX
8
CUT
10
25.7400
20
221.7500
30
0.0000
0
VERTEX
8
CUT
10
71.4900
20
221.7500
30
0.0000
0
VERTEX
8
CUT
10
71.4900
20
223.2500
30
0.0000
0
VERTEX
8
CUT
10
27.2400
20
223.2500
30
0.0000
0
VERTEX
8
CUT
10
27.2400
20
267.5000
30
0.0000
0
VERTEX
8
CUT
10
71.4900
20
267.5000
30
0.0000
0
VERTEX
8
CUT
10
277.5900
20
267.5000
30
0.0000
0
VERTEX
8
CUT
10
321.8400
20
267.5000
30
0.0000
0
VERTEX
8
CUT
10
321.8400
20
223.2500
30
0.0000
0
VERTEX
8
CUT
10
277.5900
20
223.2500
30
0.0000
0
VERTEX
8
CUT
10
277.5900
20
221.7500
30
0.0000
0
VERTEX
8
CUT
10
323.3400
20
221.7500
30
0.0000
0
VERTEX
8
CUT
10
323.3400
20
65.6500
30
0.0000
0
VERTEX
8
CUT
10
277.5900
20
65.6500
30
0.0000
0
VERTEX
8
CUT
10
277.5900
20
64.1500
30
0.0000
0
VERTEX
8
CUT
10
321.8400
20
64.1500
30
0.0000
0
VERTEX
8
CUT
10
321.8400
20
19.9000
30
0.0000
0
VERTEX
8
CUT
10
277.5900
20
19.9000
30
0.0000
0
SEQEND
8
CUT
0
POLYLINE
8
CREASE
66
1
70
0
10
0.0000
20
0.0000
30
0.0000
0
VERTEX
8
CREASE
10
71.4900
20
65.6500
30
0.0000
0
VERTEX
8
CREASE
10
277.5900
20
65.6500
30
0.0000
0
SEQEND
8
CREASE
0
POLYLINE
8
CREASE
66
1
70
0
10
0.0000
20
0.0000
30
0.0000
0
VERTEX
8
CREASE
10
71.4900
20
221.7500
30
0.0000
0
VERTEX
8
CREASE
10
277.5900
20
221.7500
30
0.0000
0
SEQEND
8
CREASE
0
POLYLINE
8
CREASE
66
1
70
0
10
0.0000
20
0.0000
30
0.0000
0
VERTEX
8
CREASE
10
71.4900
20
65.6500
30
0.0000
0
VERTEX
8
CREASE
10
71.4900
20
221.7500
30
0.0000
0
SEQEND
8
CREASE
0
POLYLINE
8
CREASE
66
1
70
0
10
0.0000
20
0.0000
30
0.0000
0
VERTEX
8
CREASE
10
277.5900
20
65.6500
30
0.0000
0
VERTEX
8
CREASE
10
277.5900
20
221.7500
30
0.0000
0
SEQEND
8
CREASE
0
POLYLINE
8
CREASE
66
1
70
0
10
0.0000
20
0.0000
30
0.0000
0
VERTEX
8
CREASE
10
71.4900
20
19.9000
30
0.0000
0
VERTEX
8
CREASE
10
71.4900
20
64.1500
30
0.0000
0
SEQEND
8
CREASE
0
POLYLINE
8
CREASE
66
1
70
0
10
0.0000
20
0.0000
30
0.0000
0
VERTEX
8
CREASE
10
277.5900
20
19.9000
30
0.0000
0
VERTEX
8
CREASE
10
277.5900
20
64.1500
30
0.0000
0
SEQEND
8
CREASE
0
POLYLINE
8
CREASE
66
1
70
0
10
0.0000
20
0.0000
30
0.0000
0
VERTEX
8
CREASE
10
71.4900
20
223.2500
30
0.0000
0
VERTEX
8
CREASE
10
71.4900
20
267.5000
30
0.0000
0
SEQEND
8
CREASE
0
POLYLINE
8
CREASE
66
1
70
0
10
0.0000
20
0.0000
30
0.0000
0
VERTEX
8
CREASE
10
277.5900
20
223.2500
30
0.0000
0
VERTEX
8
CREASE
10
277.5900
20
267.5000
30
0.0000
0
SEQEND
8
CREASE
0
POLYLINE
8
DIMS
66
1
70
0
10
0.0000
20
0.0000
30
0.0000
0
VERTEX
8
DIMS
10
25.7400
20
17.9000
30
0.0000
0
VERTEX
8
DIMS
10
25.7400
20
0.0000
30
0.0000
0
SEQEND
8
DIMS
0
POLYLINE
8
DIMS
66
1
70
0
10
0.0000
20
0.0000
30
0.0000
0
VERTEX
8
DIMS
10
323.3400
20
17.9000
30
0.0000
0
VERTEX
8
DIMS
10
323.3400
20
0.0000
30
0.0000
0
SEQEND
8
DIMS
0
POLYLINE
8
DIMS
66
1
70
0
10
0.0000
20
0.0000
30
0.0000
0
VERTEX
8
DIMS
10
25.7400
20
1.6000
30
0.0000
0
VERTEX
8
DIMS
10
323.3400
20
1.6000
30
0.0000
0
SEQEND
8
DIMS
0
POLYLINE
8
DIMS
66
1
70
0
10
0.0000
20
0.0000
30
0.0000
0
VERTEX
8
DIMS
10
24.1400
20
0.0000
30
0.0000
0
VERTEX
8
DIMS
10
27.3400
20
3.2000
30
0.0000
0
SEQEND
8
DIMS
0
POLYLINE
8
DIMS
66
1
70
0
10
0.0000
20
0.0000
30
0.0000
0
VERTEX
8
DIMS
10
321.7400
20
0.0000
30
0.0000
0
VERTEX
8
DIMS
10
324.9400
20
3.2000
30
0.0000
0
SEQEND
8
DIMS
0
TEXT
8
DIMS
10
174.5400
20
5.7850
30
0.0000
40
9.3000
1
297.6 mm
50
0.0000
72
1
11
174.5400
21
5.7850
31
0.0000
0
POLYLINE
8
DIMS
66
1
70
0
10
0.0000
20
0.0000
30
0.0000
0
VERTEX
8
DIMS
10
23.7400
20
19.9000
30
0.0000
0
VERTEX
8
DIMS
10
5.8400
20
19.9000
30
0.0000
0
SEQEND
8
DIMS
0
POLYLINE
8
DIMS
66
1
70
0
10
0.0000
20
0.0000
30
0.0000
0
VERTEX
8
DIMS
10
23.7400
20
267.5000
30
0.0000
0
VERTEX
8
DIMS
10
5.8400
20
267.5000
30
0.0000
0
SEQEND
8
DIMS
0
POLYLINE
8
DIMS
66
1
70
0
10
0.0000
20
0.0000
30
0.0000
0
VERTEX
8
DIMS
10
7.4400
20
19.9000
30
0.0000
0
VERTEX
8
DIMS
10
7.4400
20
267.5000
30
0.0000
0
SEQEND
8
DIMS
0
POLYLINE
8
DIMS
66
1
70
0
10
0.0000
20
0.0000
30
0.0000
0
VERTEX
8
DIMS
10
5.8400
20
18.3000
30
0.0000
0
VERTEX
8
DIMS
10
9.0400
20
21.5000
30
0.0000
0
SEQEND
8
DIMS
0
POLYLINE
8
DIMS
66
1
70
0
10
0.0000
20
0.0000
30
0.0000
0
VERTEX
8
DIMS
10
5.8400
20
265.9000
30
0.0000
0
VERTEX
8
DIMS
10
9.0400
20
269.1000
30
0.0000
0
SEQEND
8
DIMS
0
TEXT
8
DIMS
10
3.2550
20
143.7000
30
0.0000
40
9.3000
1
247.6 mm
50
90.0000
72
1
11
3.2550
21
143.7000
31
0.0000
0
TEXT
8
DIMS
10
174.5400
20
140.4450
30
0.0000
40
7.9050
1
Top
50
0.0000
72
1
11
174.5400
21
140.4450
31
0.0000
0
TEXT
8
DIMS
10
48.6150
20
140.4450
30
0.0000
40
7.9050
1
Side
50
0.0000
72
1
11
48.6150
21
140.4450
31
0.0000
0
TEXT
8
DIMS
10
300.4650
20
140.4450
30
0.0000
40
7.9050
1
Side
50
0.0000
72
1
11
300.4650
21
140.4450
31
0.0000
0
TEXT
8
DIMS
10
174.5400
20
39.5200
30
0.0000
40
7.9050
1
Edge
50
0.0000
72
1
11
174.5400
21
39.5200
31
0.0000
0
TEXT
8
DIMS
10
174.5400
20
241.3700
30
0.0000
40
7.9050
1
Edge
50
0.0000
72
1
11
174.5400
21
241.3700
31
0.0000
0
ENDSEC
0
EOF
