0
SECTION
2
HEADER
9
$ACADVER
1
AC1009
9
$INSUNITS
70
4
9
$EXTMIN
10
0.0000
20
0.0000
30
0.0000
9
$EXTMAX
10
320.0820
20
264.3560
30
0.0000
0
ENDSEC
0
SECTION
2
TABLES
0
TABLE
2
LAYER
70
3
0
LAYER
2
CUT
70
0
62
6
6
CONTINUOUS
0
LAYER
2
CREASE
70
0
62
5
6
CONTINUOUS
0
LAYER
2
DIMS
70
0
62
9
6
CONTINUOUS
0
ENDTAB
0
ENDSEC
0
SECTION
2
ENTITIES
0
POLYLINE
8
CUT
66
1
70
1
10
0.0000
20
0.0000
30
0.0000
0
VERTEX
8
CUT
10
71.2320
20
19.7560
30
0.0000
0
VERTEX
8
CUT
10
26.9820
20
19.7560
30
0.0000
0
VERTEX
8
CUT
10
26.9820
20
64.0060
30
0.0000
0
VERTEX
8
CUT
10
71.2320
20
64.0060
30
0.0000
0
VERTEX
8
CUT
10
71.2320
20
65.5060
30
0.0000
0
VERTEX
8
CUT
10
25.4820
20
65.5060
30
0.0000
0
VERTEX
8
CUT
10
25.4820
20
217.0060
30
0.0000
0
VERTEX
8
CUT
10
71.2320
20
217.0060
30
0.0000
0
VERTEX
8
CUT
10
71.2320
20
218.5060
30
0.0000
0
VERTEX
8
CUT
10
26.9820
20
218.5060
30
0.0000
0
VERTEX
8
CUT
10
26.9820
20
262.7560
30
0.0000
0
VERTEX
8
CUT
10
71.2320
20
262.7560
30
0.0000
0
VERTEX
8
CUT
10
272.7320
20
262.7560
30
0.0000
0
VERTEX
8
CUT
10
316.9820
20
262.7560
30
0.0000
0
VERTEX
8
CUT
10
316.9820
20
218.5060
30
0.0000
0
VERTEX
8
CUT
10
272.7320
20
218.5060
30
0.0000
0
VERTEX
8
CUT
10
272.7320
20
217.0060
30
0.0000
0
VERTEX
8
CUT
10
318.4820
20
217.0060
30
0.0000
0
VERTEX
8
CUT
10
318.4820
20
65.5060
30
0.0000
0
VERTEX
8
CUT
10
272.7320
20
65.5060
30
0.0000
0
VERTEX
8
CUT
10
272.7320
20
64.0060
30
0.0000
0
VERTEX
8
CUT
10
316.9820
20
64.0060
30
0.0000
0
VERTEX
8
CUT
10
316.9820
20
19.7560
30
0.0000
0
VERTEX
8
CUT
10
272.7320
20
19.7560
30
0.0000
0
SEQEND
8
CUT
0
POLYLINE
8
CREASE
66
1
70
0
10
0.0000
20
0.0000
30
0.0000
0
VERTEX
8
CREASE
10
71.2320
20
65.5060
30
0.0000
0
VERTEX
8
CREASE
10
272.7320
20
65.5060
30
0.0000
0
SEQEND
8
CREASE
0
POLYLINE
8
CREASE
66
1
70
0
10
0.0000
20
0.0000
30
0.0000
0
VERTEX
8
CREASE
10
71.2320
20
217.0060
30
0.0000
0
VERTEX
8
CREASE
10
272.7320
20
217.0060
30
0.0000
0
SEQEND
8
CREASE
0
POLYLINE
8
CREASE
66
1
70
0
10
0.0000
20
0.0000
30
0.0000
0
VERTEX
8
CREASE
10
71.2320
20
65.5060
30
0.0000
0
VERTEX
8
CREASE
10
71.2320
20
217.0060
30
0.0000
0
SEQEND
8
CREASE
0
POLYLINE
8
CREASE
66
1
70
0
10
0.0000
20
0.0000
30
0.0000
0
VERTEX
8
CREASE
10
272.7320
20
65.5060
30
0.0000
0
VERTEX
8
CREASE
10
272.7320
20
217.0060
30
0.0000
0
SEQEND
8
CREASE
0
POLYLINE
8
CREASE
66
1
70
0
10
0.0000
20
0.0000
30
0.0000
0
VERTEX
8
CREASE
10
71.2320
20
19.7560
30
0.0000
0
VERTEX
8
CREASE
10
71.2320
20
64.0060
30
0.0000
0
SEQEND
8
CREASE
0
POLYLINE
8
CREASE
66
1
70
0
10
0.0000
20
0.0000
30
0.0000
0
VERTEX
8
CREASE
10
272.7320
20
19.7560
30
0.0000
0
VERTEX
8
CREASE
10
272.7320
20
64.0060
30
0.0000
0
SEQEND
8
CREASE
0
POLYLINE
8
CREASE
66
1
70
0
10
0.0000
20
0.0000
30
0.0000
0
VERTEX
8
CREASE
10
71.2320
20
218.5060
30
0.0000
0
VERTEX
8
CREASE
10
71.2320
20
262.7560
30
0.0000
0
SEQEND
8
CREASE
0
POLYLINE
8
CREASE
66
1
70
0
10
0.0000
20
0.0000
30
0.0000
0
VERTEX
8
CREASE
10
272.7320
20
218.5060
30
0.0000
0
VERTEX
8
CREASE
10
272.7320
20
262.7560
30
0.0000
0
SEQEND
8
CREASE
0
POLYLINE
8
DIMS
66
1
70
0
10
0.0000
20
0.0000
30
0.0000
0
VERTEX
8
DIMS
10
25.4820
20
17.7560
30
0.0000
0
VERTEX
8
DIMS
10
25.4820
20
0.0000
30
0.0000
0
SEQEND
8
DIMS
0
POLYLINE
8
DIMS
66
1
70
0
10
0.0000
20
0.0000
30
0.0000
0
VERTEX
8
DIMS
10
318.4820
20
17.7560
30
0.0000
0
VERTEX
8
DIMS
10
318.4820
20
0.0000
30
0.0000
0
SEQEND
8
DIMS
0
POLYLINE
8
DIMS
66
1
70
0
10
0.0000
20
0.0000
30
0.0000
0
VERTEX
8
DIMS
10
25.4820
20
1.6000
30
0.0000
0
VERTEX
8
DIMS
10
318.4820
20
1.6000
30
0.0000
0
SEQEND
8
DIMS
0
POLYLINE
8
DIMS
66
1
70
0
10
0.0000
20
0.0000
30
0.0000
0
VERTEX
8
DIMS
10
23.8820
20
0.0000
30
0.0000
0
VERTEX
8
DIMS
10
27.0820
20
3.2000
30
0.0000
0
SEQEND
8
DIMS
0
POLYLINE
8
DIMS
66
1
70
0
10
0.0000
20
0.0000
30
0.0000
0
VERTEX
8
DIMS
10
316.8820
20
0.0000
30
0.0000
0
VERTEX
8
DIMS
10
320.0820
20
3.2000
30
0.0000
0
SEQEND
8
DIMS
0
TEXT
8
DIMS
10
171.9820
20
5.7200
30
0.0000
40
9.1563
1
293 mm
50
0.0000
72
1
11
171.9820
21
5.7200
31
0.0000
0
POLYLINE
8
DIMS
66
1
70
0
10
0.0000
20
0.0000
30
0.0000
0
VERTEX
8
DIMS
10
23.4820
20
19.7560
30
0.0000
0
VERTEX
8
DIMS
10
5.7260
20
19.7560
30
0.0000
0
SEQEND
8
DIMS
0
POLYLINE
8
DIMS
66
1
70
0
10
0.0000
20
0.0000
30
0.0000
0
VERTEX
8
DIMS
10
23.4820
20
262.7560
30
0.0000
0
VERTEX
8
DIMS
10
5.7260
20
262.7560
30
0.0000
0
SEQEND
8
DIMS
0
POLYLINE
8
DIMS
66
1
70
0
10
0.0000
20
0.0000
30
0.0000
0
VERTEX
8
DIMS
10
7.3260
20
19.7560
30
0.0000
0
VERTEX
8
DIMS
10
7.3260
20
262.7560
30
0.0000
0
SEQEND
8
DIMS
0
POLYLINE
8
DIMS
66
1
70
0
10
0.0000
20
0.0000
30
0.0000
0
VERTEX
8
DIMS
10
5.7260
20
18.1560
30
0.0000
0
VERTEX
8
DIMS
10
8.9260
20
21.3560
30
0.0000
0
SEQEND
8
DIMS
0
POLYLINE
8
DIMS
66
1
70
0
10
0.0000
20
0.0000
30
0.0000
0
VERTEX
8
DIMS
10
5.7260
20
261.1560
30
0.0000
0
VERTEX
8
DIMS
10
8.9260
20
264.3560
30
0.0000
0
SEQEND
8
DIMS
0
TEXT
8
DIMS
10
3.2050
20
141.2560
30
0.0000
40
9.1563
1
243 mm
50
90.0000
72
1
11
3.2050
21
141.2560
31
0.0000
0
TEXT
8
DIMS
10
171.9820
20
138.0510
30
0.0000
40
7.7828
1
Base
50
0.0000
72
1
11
171.9820
21
138.0510
31
0.0000
0
TEXT
8
DIMS
10
48.3570
20
138.0510
30
0.0000
40
7.7828
1
Side
50
0.0000
72
1
11
48.3570
21
138.0510
31
0.0000
0
TEXT
8
DIMS
10
295.6070
20
138.0510
30
0.0000
40
7.7828
1
Side
50
0.0000
72
1
11
295.6070
21
138.0510
31
0.0000
0
TEXT
8
DIMS
10
171.9820
20
39.4260
30
0.0000
40
7.7828
1
Front
50
0.0000
72
1
11
171.9820
21
39.4260
31
0.0000
0
TEXT
8
DIMS
10
171.9820
20
236.6760
30
0.0000
40
7.7828
1
Back
50
0.0000
72
1
11
171.9820
21
236.6760
31
0.0000
0
ENDSEC
0
EOF
